<svg xmlns="http://www.w3.org/2000/svg" width="15.722" height="18.681" viewBox="0 0 15.722 18.681">
  <g id="location" transform="translate(-4.997 -2.927)">
    <path id="Path_5352" data-name="Path 5352" d="M18.416,5.23A7.861,7.861,0,0,0,7.3,16.346l2.929,2.929a.717.717,0,1,0,1.014-1.014L8.314,15.332a6.43,6.43,0,1,1,9.087,0l-5.051,5.051A.717.717,0,1,0,13.365,21.4l5.051-5.051a7.859,7.859,0,0,0,0-11.116Z" fill="#d5d5d5"/>
    <path id="Path_5353" data-name="Path 5353" d="M18.144,12.572a3.572,3.572,0,1,0-3.572,3.572,3.572,3.572,0,0,0,3.572-3.572Zm-5.715,0a2.143,2.143,0,1,1,2.143,2.143A2.143,2.143,0,0,1,12.429,12.572Z" transform="translate(-1.714 -1.734)" fill="#d5d5d5"/>
  </g>
</svg>
